name rise43.5482peak65.4966fall89.1036.mot
datacolumns 19
datarows 30
range 4.43331600000000 4.48165100000000
endheader
time	ground_force1_vx	ground_force1_vy	ground_force1_vz	ground_force1_px	ground_force1_py	ground_force1_pz	ground_force2_vx	ground_force2_vy	ground_force2_vz	ground_force2_px	ground_force2_py	ground_force2_pz	ground_torque1_x	ground_torque1_y	ground_torque1_z	ground_torque2_x	ground_torque2_y	ground_torque2_z	
4.43331600000000	7.01758300000000	724.73300500000005	53.03226000000000	0.16752200000000	0.00000000000000	0.15490300000000	0.00000000000000	0.00000000000000	0.00000000000000	0.00000000000000	0.00000000000000	0.00000000000000	0.00000000000000	16.05134400000000	0.00000000000000	0.00000000000000	0.00000000000000	0.00000000000000	
4.43498200000000	6.46360200000000	725.02833599999997	53.01138200000000	0.16642000000000	0.00000000000000	0.15489400000000	0.00000000000000	0.00000000000000	0.00000000000000	0.00000000000000	0.00000000000000	0.00000000000000	0.00000000000000	16.12845000000000	0.00000000000000	0.00000000000000	0.00000000000000	0.00000000000000	
4.43664800000000	5.89900100000000	725.32071299999996	52.98822800000000	0.16531200000000	0.00000000000000	0.15488300000000	0.00000000000000	0.00000000000000	0.00000000000000	0.00000000000000	0.00000000000000	0.00000000000000	0.00000000000000	16.20817400000000	0.00000000000000	0.00000000000000	0.00000000000000	0.00000000000000	
4.43831300000000	5.32441300000000	725.61064399999998	52.96284100000000	0.16420000000000	0.00000000000000	0.15487100000000	0.00000000000000	0.00000000000000	0.00000000000000	0.00000000000000	0.00000000000000	0.00000000000000	0.00000000000000	16.29046300000000	0.00000000000000	0.00000000000000	0.00000000000000	0.00000000000000	
4.43998300000000	4.74049600000000	725.89876200000003	52.93528400000000	0.16308600000000	0.00000000000000	0.15485700000000	0.00000000000000	0.00000000000000	0.00000000000000	0.00000000000000	0.00000000000000	0.00000000000000	0.00000000000000	16.37525400000000	0.00000000000000	0.00000000000000	0.00000000000000	0.00000000000000	
4.44165000000000	4.14794100000000	726.18581200000006	52.90563700000000	0.16197200000000	0.00000000000000	0.15484200000000	0.00000000000000	0.00000000000000	0.00000000000000	0.00000000000000	0.00000000000000	0.00000000000000	0.00000000000000	16.46247700000000	0.00000000000000	0.00000000000000	0.00000000000000	0.00000000000000	
4.44331800000000	3.54745900000000	726.47265500000003	52.87399800000000	0.16085800000000	0.00000000000000	0.15482600000000	0.00000000000000	0.00000000000000	0.00000000000000	0.00000000000000	0.00000000000000	0.00000000000000	0.00000000000000	16.55205300000000	0.00000000000000	0.00000000000000	0.00000000000000	0.00000000000000	
4.44498200000000	2.93978300000000	726.76025400000003	52.84048400000000	0.15974800000000	0.00000000000000	0.15480800000000	0.00000000000000	0.00000000000000	0.00000000000000	0.00000000000000	0.00000000000000	0.00000000000000	0.00000000000000	16.64389500000000	0.00000000000000	0.00000000000000	0.00000000000000	0.00000000000000	
4.44664800000000	2.32566000000000	727.04967299999998	52.80522400000000	0.15864200000000	0.00000000000000	0.15478800000000	0.00000000000000	0.00000000000000	0.00000000000000	0.00000000000000	0.00000000000000	0.00000000000000	0.00000000000000	16.73790700000000	0.00000000000000	0.00000000000000	0.00000000000000	0.00000000000000	
4.44831100000000	1.70585400000000	727.34206600000005	52.76836400000000	0.15754100000000	0.00000000000000	0.15476600000000	0.00000000000000	0.00000000000000	0.00000000000000	0.00000000000000	0.00000000000000	0.00000000000000	0.00000000000000	16.83398300000000	0.00000000000000	0.00000000000000	0.00000000000000	0.00000000000000	
4.44998400000000	1.08113500000000	727.63867400000004	52.73006500000000	0.15644800000000	0.00000000000000	0.15474300000000	0.00000000000000	0.00000000000000	0.00000000000000	0.00000000000000	0.00000000000000	0.00000000000000	0.00000000000000	16.93201200000000	0.00000000000000	0.00000000000000	0.00000000000000	0.00000000000000	
4.45164300000000	0.45228100000000	727.94081300000005	52.69049700000000	0.15536200000000	0.00000000000000	0.15471800000000	0.00000000000000	0.00000000000000	0.00000000000000	0.00000000000000	0.00000000000000	0.00000000000000	0.00000000000000	17.03187100000000	0.00000000000000	0.00000000000000	0.00000000000000	0.00000000000000	
4.45331100000000	-0.17992800000000	728.24986899999999	52.64984500000000	0.15428700000000	0.00000000000000	0.15469100000000	0.00000000000000	0.00000000000000	0.00000000000000	0.00000000000000	0.00000000000000	0.00000000000000	0.00000000000000	17.13343400000000	0.00000000000000	0.00000000000000	0.00000000000000	0.00000000000000	
4.45498400000000	-0.81471200000000	728.56728899999996	52.60830100000000	0.15322100000000	0.00000000000000	0.15466200000000	0.00000000000000	0.00000000000000	0.00000000000000	0.00000000000000	0.00000000000000	0.00000000000000	0.00000000000000	17.23656200000000	0.00000000000000	0.00000000000000	0.00000000000000	0.00000000000000	
4.45665000000000	-1.45129700000000	728.89457200000004	52.56606800000000	0.15216800000000	0.00000000000000	0.15463000000000	0.00000000000000	0.00000000000000	0.00000000000000	0.00000000000000	0.00000000000000	0.00000000000000	0.00000000000000	17.34111300000000	0.00000000000000	0.00000000000000	0.00000000000000	0.00000000000000	
4.45831400000000	-2.08891100000000	729.23325999999997	52.52335800000000	0.15112600000000	0.00000000000000	0.15459700000000	0.00000000000000	0.00000000000000	0.00000000000000	0.00000000000000	0.00000000000000	0.00000000000000	0.00000000000000	17.44693600000000	0.00000000000000	0.00000000000000	0.00000000000000	0.00000000000000	
4.45997500000000	-2.72679600000000	729.58492999999999	52.48038800000000	0.15009700000000	0.00000000000000	0.15456100000000	0.00000000000000	0.00000000000000	0.00000000000000	0.00000000000000	0.00000000000000	0.00000000000000	0.00000000000000	17.55387600000000	0.00000000000000	0.00000000000000	0.00000000000000	0.00000000000000	
4.46164600000000	-3.36420600000000	729.95118300000001	52.43737900000000	0.14908200000000	0.00000000000000	0.15452400000000	0.00000000000000	0.00000000000000	0.00000000000000	0.00000000000000	0.00000000000000	0.00000000000000	0.00000000000000	17.66177000000000	0.00000000000000	0.00000000000000	0.00000000000000	0.00000000000000	
4.46331300000000	-4.00040600000000	730.33363599999996	52.39456100000000	0.14808100000000	0.00000000000000	0.15448400000000	0.00000000000000	0.00000000000000	0.00000000000000	0.00000000000000	0.00000000000000	0.00000000000000	0.00000000000000	17.77045200000000	0.00000000000000	0.00000000000000	0.00000000000000	0.00000000000000	
4.46497800000000	-4.63468400000000	730.73391200000003	52.35216400000000	0.14709400000000	0.00000000000000	0.15444100000000	0.00000000000000	0.00000000000000	0.00000000000000	0.00000000000000	0.00000000000000	0.00000000000000	0.00000000000000	17.87974800000000	0.00000000000000	0.00000000000000	0.00000000000000	0.00000000000000	
4.46664600000000	-5.26634300000000	731.15363100000002	52.31042000000000	0.14612100000000	0.00000000000000	0.15439600000000	0.00000000000000	0.00000000000000	0.00000000000000	0.00000000000000	0.00000000000000	0.00000000000000	0.00000000000000	17.98948500000000	0.00000000000000	0.00000000000000	0.00000000000000	0.00000000000000	
4.46831200000000	-5.89471000000000	731.59440099999995	52.26956500000000	0.14516400000000	0.00000000000000	0.15434900000000	0.00000000000000	0.00000000000000	0.00000000000000	0.00000000000000	0.00000000000000	0.00000000000000	0.00000000000000	18.09948200000000	0.00000000000000	0.00000000000000	0.00000000000000	0.00000000000000	
4.46998100000000	-6.51913600000000	732.05780700000003	52.22983100000000	0.14422100000000	0.00000000000000	0.15429900000000	0.00000000000000	0.00000000000000	0.00000000000000	0.00000000000000	0.00000000000000	0.00000000000000	0.00000000000000	18.20955900000000	0.00000000000000	0.00000000000000	0.00000000000000	0.00000000000000	
4.47164800000000	-7.13899600000000	732.54540299999996	52.19145200000000	0.14329300000000	0.00000000000000	0.15424700000000	0.00000000000000	0.00000000000000	0.00000000000000	0.00000000000000	0.00000000000000	0.00000000000000	0.00000000000000	18.31953200000000	0.00000000000000	0.00000000000000	0.00000000000000	0.00000000000000	
4.47331400000000	-7.75369400000000	733.05870100000004	52.15465800000000	0.14237900000000	0.00000000000000	0.15419200000000	0.00000000000000	0.00000000000000	0.00000000000000	0.00000000000000	0.00000000000000	0.00000000000000	0.00000000000000	18.42921600000000	0.00000000000000	0.00000000000000	0.00000000000000	0.00000000000000	
4.47497600000000	-8.36266000000000	733.59916599999997	52.11967700000000	0.14148000000000	0.00000000000000	0.15413400000000	0.00000000000000	0.00000000000000	0.00000000000000	0.00000000000000	0.00000000000000	0.00000000000000	0.00000000000000	18.53842600000000	0.00000000000000	0.00000000000000	0.00000000000000	0.00000000000000	
4.47664700000000	-8.96535600000000	734.16820199999995	52.08673300000000	0.14059500000000	0.00000000000000	0.15407400000000	0.00000000000000	0.00000000000000	0.00000000000000	0.00000000000000	0.00000000000000	0.00000000000000	0.00000000000000	18.64697700000000	0.00000000000000	0.00000000000000	0.00000000000000	0.00000000000000	
4.47831600000000	-9.56127200000000	734.76714800000002	52.05604400000000	0.13972300000000	0.00000000000000	0.15401200000000	0.00000000000000	0.00000000000000	0.00000000000000	0.00000000000000	0.00000000000000	0.00000000000000	0.00000000000000	18.75468700000000	0.00000000000000	0.00000000000000	0.00000000000000	0.00000000000000	
4.47998100000000	-10.14993400000000	735.39726499999995	52.02782200000000	0.13886400000000	0.00000000000000	0.15394700000000	0.00000000000000	0.00000000000000	0.00000000000000	0.00000000000000	0.00000000000000	0.00000000000000	0.00000000000000	18.86137200000000	0.00000000000000	0.00000000000000	0.00000000000000	0.00000000000000	
4.48165100000000	-10.73089600000000	736.05973400000005	52.00227400000000	0.13801800000000	0.00000000000000	0.15387900000000	0.00000000000000	0.00000000000000	0.00000000000000	0.00000000000000	0.00000000000000	0.00000000000000	0.00000000000000	18.96685300000000	0.00000000000000	0.00000000000000	0.00000000000000	0.00000000000000	
